<?xml version="1.0" standalone="no"?>
<!DOCTYPE svg PUBLIC "-//W3C//DTD SVG 20010904//EN"
 "http://www.w3.org/TR/2001/REC-SVG-20010904/DTD/svg10.dtd">
<svg version="1.0" xmlns="http://www.w3.org/2000/svg"
 width="600.000000pt" height="600.000000pt" viewBox="0 0 600.000000 600.000000"
 preserveAspectRatio="xMidYMid meet">
<metadata>
Created by potrace 1.11, written by Peter Selinger 2001-2013
</metadata>
<g transform="translate(0.000000,600.000000) scale(0.100000,-0.100000)"
fill="#000000" stroke="none">
<path d="M2769 4161 c-129 -92 -396 -284 -594 -426 -198 -142 -506 -364 -685
-492 -179 -129 -326 -237 -328 -241 -1 -5 35 -35 80 -67 129 -91 398 -284 453
-325 28 -20 316 -227 640 -460 325 -232 604 -433 622 -446 36 -27 55 -30 75
-11 7 7 76 57 153 113 210 150 826 593 1110 797 138 99 284 204 325 233 41 30
80 57 85 62 6 4 38 27 73 51 34 25 61 48 60 52 -3 7 -157 120 -663 482 -115
83 -320 230 -455 327 -135 97 -335 241 -445 319 -110 79 -216 156 -236 172
l-37 28 -233 -168z m643 -172 c396 -285 540 -388 923 -664 116 -83 263 -189
328 -236 64 -46 117 -86 117 -89 0 -4 -84 -66 -187 -140 -104 -74 -248 -177
-320 -229 -149 -108 -206 -149 -513 -370 -535 -384 -626 -449 -691 -495 l-69
-50 -43 30 c-45 33 -625 449 -797 573 -58 41 -292 210 -520 374 -228 164 -415
302 -415 307 0 8 380 286 640 468 28 20 129 93 225 162 321 232 714 515 740
532 14 9 56 40 95 68 38 28 75 48 82 46 7 -3 189 -132 405 -287z"/>
<path d="M2939 4180 c-30 -21 -69 -49 -87 -62 -17 -13 -40 -29 -50 -36 -60
-44 -480 -346 -691 -497 -138 -99 -320 -230 -404 -290 -162 -117 -161 -117
-258 -184 -35 -25 -70 -51 -77 -58 -7 -7 -26 -20 -42 -30 -33 -19 -37 -28 -17
-36 6 -3 42 -27 78 -53 136 -100 451 -327 739 -532 74 -53 137 -99 140 -103 3
-3 39 -29 80 -57 41 -28 203 -144 360 -257 157 -113 291 -203 298 -200 6 2
109 75 228 161 119 85 233 168 253 182 48 34 218 156 281 202 27 19 108 78
181 130 73 52 161 115 195 140 35 25 120 86 189 135 227 162 260 186 275 198
8 7 32 23 53 37 20 14 37 27 37 30 0 3 -46 37 -103 77 -56 40 -190 135 -297
213 -107 77 -222 160 -255 183 -157 113 -603 433 -707 508 -64 46 -126 91
-138 99 -12 8 -60 43 -107 78 -47 34 -88 62 -92 62 -4 0 -32 -18 -62 -40z
m426 -245 c479 -344 676 -485 757 -544 43 -31 112 -81 154 -111 43 -30 115
-82 160 -115 46 -33 115 -82 154 -109 39 -27 69 -53 68 -57 -2 -6 -297 -221
-519 -378 -70 -50 -232 -166 -584 -420 -104 -75 -210 -151 -235 -169 -25 -17
-49 -35 -55 -39 -71 -55 -256 -183 -264 -183 -6 0 -50 28 -97 63 -48 34 -96
69 -108 77 -42 30 -1115 800 -1238 889 -46 33 -113 81 -150 108 -37 26 -68 51
-68 54 0 3 96 74 213 157 116 83 267 191 334 239 183 132 630 454 678 488 125
89 343 245 387 277 l51 37 36 -28 c20 -15 167 -122 326 -236z"/>
<path d="M2064 3162 c-33 -3 -44 -20 -44 -69 0 -20 -5 -23 -39 -23 -74 0 -121
-65 -121 -167 0 -64 52 -89 100 -47 12 10 19 10 34 -2 24 -17 58 -18 75 -1 11
10 14 10 18 0 3 -7 19 -13 38 -13 l32 0 18 85 c10 47 24 93 32 103 12 16 14
16 24 0 14 -24 46 -23 54 2 10 31 -11 50 -43 41 -15 -4 -38 -5 -52 -1 -43 12
-56 -4 -70 -82 -8 -49 -19 -79 -33 -91 -33 -29 -43 -7 -28 66 7 34 15 71 17
82 2 11 9 42 15 68 6 26 10 49 8 50 -2 1 -18 1 -35 -1z m-68 -172 c-11 -80
-25 -112 -50 -108 -17 2 -21 10 -20 38 1 54 12 88 35 111 29 29 42 14 35 -41z"/>
<path d="M3213 3142 c-15 -2 -25 -13 -29 -30 -4 -15 -11 -32 -16 -39 -5 -7 -7
-16 -4 -21 2 -4 1 -26 -4 -48 -21 -87 -22 -130 -5 -147 22 -22 57 -21 86 2 24
19 25 19 48 0 31 -26 71 -24 114 5 33 22 36 23 40 6 8 -33 40 -41 79 -22 31
16 37 17 57 3 18 -12 29 -12 52 -4 16 6 29 7 29 2 0 -5 16 -9 35 -9 32 0 35 3
41 38 12 71 33 145 44 156 8 8 15 6 25 -7 9 -13 10 -28 3 -60 -5 -23 -12 -53
-14 -67 -3 -14 -7 -33 -10 -42 -4 -15 1 -18 30 -18 38 0 37 -1 57 95 6 33 13
67 14 75 2 8 4 18 4 22 1 3 9 5 19 4 19 -3 20 -22 7 -115 -7 -46 -6 -56 10
-67 11 -8 29 -14 40 -14 23 0 95 63 95 82 0 7 -13 0 -28 -15 -52 -50 -61 -35
-41 66 11 51 10 60 -6 77 -20 22 -55 26 -87 9 -14 -8 -23 -8 -31 0 -14 14 -53
14 -79 0 -12 -6 -18 -7 -14 -1 8 13 -24 21 -49 12 -14 -5 -23 -27 -37 -90 -20
-92 -29 -110 -52 -91 -12 10 -12 20 -1 64 25 102 26 117 7 118 -49 3 -110 -3
-134 -12 -29 -12 -68 -79 -68 -116 0 -32 -55 -74 -83 -64 -39 15 -32 44 17 70
45 23 56 37 61 79 4 29 -33 55 -70 48 -53 -10 -95 -71 -95 -138 0 -37 -34 -68
-52 -50 -15 15 11 141 33 163 11 11 14 19 8 19 -8 0 -10 13 -6 38 5 40 4 41
-40 34z m193 -106 c7 -19 -12 -53 -37 -67 -28 -15 -33 -6 -19 35 14 43 45 61
56 32z m164 -70 c-13 -68 -29 -92 -55 -82 -28 10 -10 111 27 148 33 33 43 10
28 -66z"/>
<path d="M2354 3070 c-37 -15 -66 -66 -71 -129 -5 -51 -3 -61 17 -81 18 -18
30 -21 62 -17 22 3 51 16 64 28 20 18 24 20 24 6 0 -34 76 -51 100 -22 11 13
15 13 33 0 26 -18 59 -19 75 -3 9 9 12 9 12 0 0 -7 14 -12 34 -12 l34 0 23 97
c24 97 32 110 57 94 11 -7 10 -24 -6 -100 l-20 -91 34 0 c35 0 40 5 48 50 28
143 30 151 45 148 18 -4 20 -43 8 -119 -9 -54 7 -79 50 -79 26 0 93 60 93 83
0 7 -11 -1 -25 -16 -27 -29 -55 -36 -55 -14 0 8 5 39 11 71 16 76 3 106 -44
106 -18 0 -39 -6 -45 -12 -10 -10 -17 -10 -32 0 -24 15 -55 15 -80 2 -15 -8
-18 -7 -14 3 3 10 -2 13 -18 11 -13 -1 -28 -3 -35 -3 -7 -1 -20 -37 -29 -82
-20 -91 -36 -121 -55 -102 -9 10 -8 29 5 93 10 45 16 84 13 87 -5 4 -62 6
-119 4 -30 -2 -74 -49 -87 -93 -18 -66 -31 -86 -62 -97 -22 -8 -32 -6 -44 5
-25 25 -17 43 25 60 39 16 70 54 70 87 0 36 -51 56 -96 37z m66 -42 c0 -24
-36 -68 -57 -68 -18 0 -16 20 7 58 23 37 50 43 50 10z m176 -7 c-3 -9 -8 -29
-11 -46 -15 -70 -27 -95 -45 -95 -10 0 -20 6 -23 14 -13 33 20 140 46 149 20
7 38 -4 33 -22z"/>
<path d="M2797 2343 c-4 -3 -7 -13 -7 -20 0 -12 3 -11 16 2 9 9 23 14 31 11 8
-3 17 -6 19 -6 2 0 4 -8 4 -17 0 -10 -18 -34 -41 -55 -22 -20 -38 -42 -34 -48
3 -5 26 -10 51 -10 25 0 43 4 40 8 -3 5 -21 7 -40 6 -20 -2 -36 0 -36 3 0 3
18 23 40 43 40 37 45 62 16 82 -14 10 -50 10 -59 1z"/>
<path d="M2920 2330 c-42 -42 -15 -130 39 -130 37 0 61 28 61 71 0 70 -56 103
-100 59z m71 -11 c23 -23 21 -72 -5 -97 -12 -13 -20 -13 -41 -4 -25 11 -29 23
-27 72 1 23 25 50 44 50 4 0 17 -9 29 -21z"/>
<path d="M3073 2338 c-25 -12 -32 -31 -8 -22 16 6 19 -7 15 -78 -1 -21 3 -38
8 -38 5 0 10 34 11 75 1 41 0 75 -1 74 -2 0 -13 -5 -25 -11z"/>
<path d="M3154 2340 c-25 -10 -36 -54 -20 -74 16 -20 37 -24 66 -14 l25 9 -24
-25 c-14 -14 -30 -26 -37 -26 -7 0 -16 -5 -20 -11 -13 -21 40 2 64 27 27 31
29 77 2 104 -22 22 -25 23 -56 10z m55 -29 c14 -26 -8 -54 -39 -49 -25 3 -36
27 -26 54 8 20 53 17 65 -5z"/>
</g>
</svg>
